<?xml version="1.0" encoding="UTF-8" ?>
<svg version="1.1" width="128" height="128" xmlns="http://www.w3.org/2000/svg" shape-rendering="crispEdges">
<rect x="0" y="0" width="128" height="2" fill="#363D52" />
<rect x="0" y="2" width="89" height="1" fill="#363D52" />
<rect x="89" y="2" width="6" height="1" fill="#E7F0F6" />
<rect x="95" y="2" width="12" height="1" fill="#363D52" />
<rect x="107" y="2" width="6" height="1" fill="#E7F0F6" />
<rect x="113" y="2" width="15" height="1" fill="#363D52" />
<rect x="0" y="3" width="87" height="1" fill="#363D52" />
<rect x="87" y="3" width="2" height="1" fill="#E7F0F6" />
<rect x="89" y="3" width="6" height="27" fill="#FFFFFF" />
<rect x="95" y="3" width="2" height="1" fill="#E7F0F6" />
<rect x="97" y="3" width="8" height="1" fill="#363D52" />
<rect x="105" y="3" width="2" height="1" fill="#E7F0F6" />
<rect x="107" y="3" width="6" height="28" fill="#FFFFFF" />
<rect x="113" y="3" width="2" height="1" fill="#E7F0F6" />
<rect x="115" y="3" width="13" height="1" fill="#363D52" />
<rect x="0" y="4" width="85" height="1" fill="#363D52" />
<rect x="85" y="4" width="2" height="1" fill="#E7F0F6" />
<rect x="87" y="4" width="2" height="30" fill="#FFFFFF" />
<rect x="95" y="4" width="2" height="26" fill="#FFFFFF" />
<rect x="97" y="4" width="2" height="1" fill="#E7F0F6" />
<rect x="99" y="4" width="4" height="1" fill="#363D52" />
<rect x="103" y="4" width="2" height="1" fill="#E7F0F6" />
<rect x="105" y="4" width="2" height="29" fill="#FFFFFF" />
<rect x="113" y="4" width="2" height="29" fill="#FFFFFF" />
<rect x="115" y="4" width="2" height="1" fill="#E7F0F6" />
<rect x="117" y="4" width="11" height="1" fill="#363D52" />
<rect x="0" y="5" width="84" height="1" fill="#363D52" />
<rect x="84" y="5" width="1" height="1" fill="#E7F0F6" />
<rect x="85" y="5" width="2" height="30" fill="#FFFFFF" />
<rect x="97" y="5" width="1" height="27" fill="#FFFFFF" />
<rect x="98" y="5" width="2" height="1" fill="#E7F0F6" />
<rect x="100" y="5" width="2" height="1" fill="#363D52" />
<rect x="102" y="5" width="1" height="1" fill="#E7F0F6" />
<rect x="103" y="5" width="2" height="29" fill="#FFFFFF" />
<rect x="115" y="5" width="2" height="29" fill="#FFFFFF" />
<rect x="117" y="5" width="1" height="1" fill="#E7F0F6" />
<rect x="118" y="5" width="10" height="1" fill="#363D52" />
<rect x="0" y="6" width="83" height="2" fill="#363D52" />
<rect x="83" y="6" width="1" height="1" fill="#E7F0F6" />
<rect x="84" y="6" width="1" height="29" fill="#FFFFFF" />
<rect x="98" y="6" width="2" height="26" fill="#FFFFFF" />
<rect x="100" y="6" width="2" height="1" fill="#E7F0F6" />
<rect x="102" y="6" width="1" height="28" fill="#FFFFFF" />
<rect x="117" y="6" width="1" height="28" fill="#FFFFFF" />
<rect x="118" y="6" width="1" height="2" fill="#E7F0F6" />
<rect x="119" y="6" width="9" height="2" fill="#363D52" />
<rect x="83" y="7" width="1" height="27" fill="#FFFFFF" />
<rect x="100" y="7" width="2" height="26" fill="#FFFFFF" />
<rect x="0" y="8" width="82" height="2" fill="#363D52" />
<rect x="82" y="8" width="1" height="2" fill="#E7F0F6" />
<rect x="118" y="8" width="1" height="26" fill="#FFFFFF" />
<rect x="119" y="8" width="1" height="2" fill="#E7F0F6" />
<rect x="120" y="8" width="8" height="2" fill="#363D52" />
<rect x="0" y="10" width="81" height="6" fill="#363D52" />
<rect x="81" y="10" width="1" height="6" fill="#E7F0F6" />
<rect x="82" y="10" width="1" height="24" fill="#FFFFFF" />
<rect x="119" y="10" width="1" height="23" fill="#FFFFFF" />
<rect x="120" y="10" width="1" height="4" fill="#E7F0F6" />
<rect x="121" y="10" width="7" height="4" fill="#363D52" />
<rect x="120" y="14" width="1" height="19" fill="#FFFFFF" />
<rect x="121" y="14" width="1" height="1" fill="#E7F0F6" />
<rect x="122" y="14" width="6" height="1" fill="#363D52" />
<rect x="121" y="15" width="1" height="17" fill="#FFFFFF" />
<rect x="122" y="15" width="2" height="1" fill="#E7F0F6" />
<rect x="124" y="15" width="4" height="1" fill="#363D52" />
<rect x="0" y="16" width="79" height="1" fill="#363D52" />
<rect x="79" y="16" width="2" height="1" fill="#E7F0F6" />
<rect x="81" y="16" width="1" height="17" fill="#FFFFFF" />
<rect x="122" y="16" width="2" height="15" fill="#FFFFFF" />
<rect x="124" y="16" width="1" height="1" fill="#E7F0F6" />
<rect x="125" y="16" width="3" height="1" fill="#363D52" />
<rect x="0" y="17" width="78" height="1" fill="#363D52" />
<rect x="78" y="17" width="1" height="1" fill="#E7F0F6" />
<rect x="79" y="17" width="2" height="15" fill="#FFFFFF" />
<rect x="124" y="17" width="1" height="13" fill="#FFFFFF" />
<rect x="125" y="17" width="1" height="2" fill="#E7F0F6" />
<rect x="126" y="17" width="2" height="2" fill="#363D52" />
<rect x="0" y="18" width="77" height="1" fill="#363D52" />
<rect x="77" y="18" width="1" height="2" fill="#E7F0F6" />
<rect x="78" y="18" width="1" height="13" fill="#FFFFFF" />
<rect x="0" y="19" width="42" height="1" fill="#363D52" />
<rect x="42" y="19" width="1" height="1" fill="#4178A3" />
<rect x="43" y="19" width="4" height="79" fill="#458DC0" />
<rect x="47" y="19" width="22" height="2" fill="#363D52" />
<rect x="69" y="19" width="4" height="78" fill="#458DC0" />
<rect x="73" y="19" width="1" height="1" fill="#4589BB" />
<rect x="74" y="19" width="3" height="1" fill="#363D52" />
<rect x="125" y="19" width="1" height="9" fill="#FFFFFF" />
<rect x="126" y="19" width="1" height="2" fill="#E7F0F6" />
<rect x="127" y="19" width="1" height="2" fill="#363D52" />
<rect x="0" y="20" width="39" height="1" fill="#363D52" />
<rect x="39" y="20" width="4" height="47" fill="#458DC0" />
<rect x="73" y="20" width="3" height="2" fill="#458DC0" />
<rect x="76" y="20" width="1" height="2" fill="#E7F0F6" />
<rect x="77" y="20" width="1" height="9" fill="#FFFFFF" />
<rect x="0" y="21" width="36" height="1" fill="#363D52" />
<rect x="36" y="21" width="3" height="44" fill="#458DC0" />
<rect x="47" y="21" width="1" height="76" fill="#458DC0" />
<rect x="48" y="21" width="20" height="1" fill="#363D52" />
<rect x="68" y="21" width="1" height="76" fill="#458DC0" />
<rect x="126" y="21" width="1" height="5" fill="#FFFFFF" />
<rect x="127" y="21" width="1" height="6" fill="#E7F0F6" />
<rect x="0" y="22" width="33" height="1" fill="#363D52" />
<rect x="33" y="22" width="1" height="1" fill="#373E53" />
<rect x="34" y="22" width="2" height="42" fill="#458DC0" />
<rect x="48" y="22" width="1" height="1" fill="#3C5B7C" />
<rect x="49" y="22" width="19" height="1" fill="#363D52" />
<rect x="73" y="22" width="2" height="48" fill="#458DC0" />
<rect x="75" y="22" width="1" height="6" fill="#E7F0F6" />
<rect x="76" y="22" width="1" height="5" fill="#FFFFFF" />
<rect x="0" y="23" width="31" height="14" fill="#363D52" />
<rect x="31" y="23" width="1" height="1" fill="#3F6589" />
<rect x="32" y="23" width="2" height="40" fill="#458DC0" />
<rect x="48" y="23" width="1" height="74" fill="#458DC0" />
<rect x="49" y="23" width="18" height="1" fill="#363D52" />
<rect x="67" y="23" width="1" height="74" fill="#458DC0" />
<rect x="31" y="24" width="1" height="10" fill="#458DC0" />
<rect x="49" y="24" width="1" height="1" fill="#3F7199" />
<rect x="50" y="24" width="17" height="1" fill="#363D52" />
<rect x="49" y="25" width="1" height="72" fill="#458DC0" />
<rect x="50" y="25" width="16" height="1" fill="#363D52" />
<rect x="66" y="25" width="1" height="72" fill="#458DC0" />
<rect x="50" y="26" width="1" height="1" fill="#3F678E" />
<rect x="51" y="26" width="15" height="1" fill="#363D52" />
<rect x="126" y="26" width="1" height="3" fill="#E7F0F6" />
<rect x="50" y="27" width="1" height="70" fill="#458DC0" />
<rect x="51" y="27" width="14" height="1" fill="#363D52" />
<rect x="65" y="27" width="1" height="70" fill="#458DC0" />
<rect x="76" y="27" width="1" height="3" fill="#E7F0F6" />
<rect x="127" y="27" width="1" height="101" fill="#363D52" />
<rect x="51" y="28" width="1" height="1" fill="#38465E" />
<rect x="52" y="28" width="13" height="1" fill="#363D52" />
<rect x="75" y="28" width="1" height="40" fill="#458DC0" />
<rect x="125" y="28" width="1" height="3" fill="#E7F0F6" />
<rect x="51" y="29" width="1" height="68" fill="#458DC0" />
<rect x="52" y="29" width="1" height="1" fill="#363D52" />
<rect x="53" y="29" width="1" height="1" fill="#3C5F80" />
<rect x="54" y="29" width="8" height="41" fill="#458DC0" />
<rect x="62" y="29" width="1" height="1" fill="#3D668B" />
<rect x="63" y="29" width="1" height="1" fill="#363D52" />
<rect x="64" y="29" width="1" height="68" fill="#458DC0" />
<rect x="77" y="29" width="1" height="3" fill="#E7F0F6" />
<rect x="126" y="29" width="1" height="99" fill="#363D52" />
<rect x="52" y="30" width="2" height="67" fill="#458DC0" />
<rect x="62" y="30" width="2" height="67" fill="#458DC0" />
<rect x="76" y="30" width="1" height="37" fill="#458DC0" />
<rect x="89" y="30" width="5" height="1" fill="#FFFFFF" />
<rect x="94" y="30" width="2" height="2" fill="#E7F0F6" />
<rect x="96" y="30" width="1" height="1" fill="#FFFFFF" />
<rect x="124" y="30" width="1" height="2" fill="#E7F0F6" />
<rect x="78" y="31" width="1" height="2" fill="#E7F0F6" />
<rect x="89" y="31" width="4" height="1" fill="#FFFFFF" />
<rect x="93" y="31" width="1" height="2" fill="#E7F0F6" />
<rect x="96" y="31" width="1" height="2" fill="#E7F0F6" />
<rect x="107" y="31" width="2" height="1" fill="#FFFFFF" />
<rect x="109" y="31" width="2" height="2" fill="#E7F0F6" />
<rect x="111" y="31" width="2" height="1" fill="#FFFFFF" />
<rect x="122" y="31" width="1" height="1" fill="#FFFFFF" />
<rect x="123" y="31" width="1" height="2" fill="#E7F0F6" />
<rect x="125" y="31" width="1" height="97" fill="#363D52" />
<rect x="77" y="32" width="1" height="34" fill="#458DC0" />
<rect x="79" y="32" width="1" height="2" fill="#E7F0F6" />
<rect x="80" y="32" width="1" height="1" fill="#FFFFFF" />
<rect x="89" y="32" width="3" height="1" fill="#FFFFFF" />
<rect x="92" y="32" width="1" height="2" fill="#E7F0F6" />
<rect x="94" y="32" width="2" height="5" fill="#363D52" />
<rect x="97" y="32" width="2" height="1" fill="#E7F0F6" />
<rect x="99" y="32" width="1" height="1" fill="#FFFFFF" />
<rect x="107" y="32" width="2" height="1" fill="#E7F0F6" />
<rect x="111" y="32" width="2" height="1" fill="#E7F0F6" />
<rect x="121" y="32" width="2" height="1" fill="#E7F0F6" />
<rect x="124" y="32" width="1" height="96" fill="#363D52" />
<rect x="78" y="33" width="1" height="32" fill="#458DC0" />
<rect x="80" y="33" width="2" height="1" fill="#E7F0F6" />
<rect x="89" y="33" width="1" height="1" fill="#FFFFFF" />
<rect x="90" y="33" width="2" height="1" fill="#E7F0F6" />
<rect x="93" y="33" width="1" height="4" fill="#363D52" />
<rect x="96" y="33" width="2" height="5" fill="#363D52" />
<rect x="98" y="33" width="3" height="1" fill="#E7F0F6" />
<rect x="101" y="33" width="1" height="1" fill="#FFFFFF" />
<rect x="105" y="33" width="3" height="1" fill="#E7F0F6" />
<rect x="108" y="33" width="4" height="9" fill="#363D52" />
<rect x="112" y="33" width="3" height="1" fill="#E7F0F6" />
<rect x="119" y="33" width="3" height="1" fill="#E7F0F6" />
<rect x="122" y="33" width="2" height="95" fill="#363D52" />
<rect x="31" y="34" width="1" height="1" fill="#3C5A7B" />
<rect x="79" y="34" width="2" height="30" fill="#458DC0" />
<rect x="81" y="34" width="3" height="1" fill="#E7F0F6" />
<rect x="87" y="34" width="1" height="1" fill="#FFFFFF" />
<rect x="88" y="34" width="3" height="1" fill="#E7F0F6" />
<rect x="91" y="34" width="2" height="3" fill="#363D52" />
<rect x="98" y="34" width="2" height="7" fill="#363D52" />
<rect x="100" y="34" width="6" height="1" fill="#E7F0F6" />
<rect x="106" y="34" width="2" height="5" fill="#363D52" />
<rect x="112" y="34" width="2" height="13" fill="#363D52" />
<rect x="114" y="34" width="6" height="1" fill="#E7F0F6" />
<rect x="120" y="34" width="2" height="94" fill="#363D52" />
<rect x="31" y="35" width="1" height="2" fill="#363D52" />
<rect x="81" y="35" width="2" height="16" fill="#458DC0" />
<rect x="83" y="35" width="6" height="1" fill="#E7F0F6" />
<rect x="89" y="35" width="2" height="3" fill="#363D52" />
<rect x="100" y="35" width="6" height="4" fill="#363D52" />
<rect x="114" y="35" width="6" height="15" fill="#363D52" />
<rect x="83" y="36" width="1" height="14" fill="#458DC0" />
<rect x="84" y="36" width="5" height="1" fill="#363D52" />
<rect x="0" y="37" width="30" height="1" fill="#363D52" />
<rect x="30" y="37" width="2" height="26" fill="#458DC0" />
<rect x="84" y="37" width="2" height="12" fill="#458DC0" />
<rect x="86" y="37" width="3" height="1" fill="#363D52" />
<rect x="91" y="37" width="4" height="1" fill="#E7F0F6" />
<rect x="95" y="37" width="1" height="1" fill="#363D52" />
<rect x="0" y="38" width="28" height="1" fill="#363D52" />
<rect x="28" y="38" width="1" height="1" fill="#364259" />
<rect x="29" y="38" width="1" height="26" fill="#458DC0" />
<rect x="86" y="38" width="1" height="11" fill="#458DC0" />
<rect x="87" y="38" width="1" height="1" fill="#3F6D94" />
<rect x="88" y="38" width="1" height="1" fill="#363D52" />
<rect x="89" y="38" width="2" height="1" fill="#E7F0F6" />
<rect x="91" y="38" width="4" height="10" fill="#FFFFFF" />
<rect x="95" y="38" width="2" height="1" fill="#E7F0F6" />
<rect x="97" y="38" width="1" height="1" fill="#363D52" />
<rect x="0" y="39" width="10" height="1" fill="#363D52" />
<rect x="10" y="39" width="2" height="54" fill="#458DC0" />
<rect x="12" y="39" width="15" height="1" fill="#363D52" />
<rect x="27" y="39" width="2" height="25" fill="#458DC0" />
<rect x="87" y="39" width="1" height="2" fill="#458DC0" />
<rect x="88" y="39" width="2" height="1" fill="#E7F0F6" />
<rect x="90" y="39" width="1" height="8" fill="#FFFFFF" />
<rect x="95" y="39" width="1" height="8" fill="#FFFFFF" />
<rect x="96" y="39" width="2" height="1" fill="#E7F0F6" />
<rect x="100" y="39" width="4" height="1" fill="#363D52" />
<rect x="104" y="39" width="2" height="54" fill="#458DC0" />
<rect x="106" y="39" width="1" height="1" fill="#3B5775" />
<rect x="107" y="39" width="1" height="2" fill="#363D52" />
<rect x="0" y="40" width="9" height="1" fill="#363D52" />
<rect x="9" y="40" width="1" height="53" fill="#458DC0" />
<rect x="12" y="40" width="2" height="54" fill="#458DC0" />
<rect x="14" y="40" width="12" height="1" fill="#363D52" />
<rect x="26" y="40" width="1" height="24" fill="#458DC0" />
<rect x="88" y="40" width="1" height="1" fill="#E7F0F6" />
<rect x="89" y="40" width="1" height="6" fill="#FFFFFF" />
<rect x="96" y="40" width="1" height="6" fill="#FFFFFF" />
<rect x="97" y="40" width="1" height="1" fill="#E7F0F6" />
<rect x="100" y="40" width="2" height="1" fill="#363D52" />
<rect x="102" y="40" width="2" height="54" fill="#458DC0" />
<rect x="106" y="40" width="1" height="53" fill="#458DC0" />
<rect x="0" y="41" width="8" height="1" fill="#363D52" />
<rect x="8" y="41" width="1" height="52" fill="#458DC0" />
<rect x="14" y="41" width="2" height="53" fill="#458DC0" />
<rect x="16" y="41" width="8" height="1" fill="#363D52" />
<rect x="24" y="41" width="1" height="1" fill="#4279A6" />
<rect x="25" y="41" width="1" height="24" fill="#458DC0" />
<rect x="87" y="41" width="1" height="4" fill="#E7F0F6" />
<rect x="88" y="41" width="1" height="4" fill="#FFFFFF" />
<rect x="97" y="41" width="1" height="4" fill="#FFFFFF" />
<rect x="98" y="41" width="1" height="4" fill="#E7F0F6" />
<rect x="99" y="41" width="1" height="1" fill="#363D52" />
<rect x="100" y="41" width="1" height="1" fill="#448CBE" />
<rect x="101" y="41" width="1" height="53" fill="#458DC0" />
<rect x="107" y="41" width="1" height="52" fill="#458DC0" />
<rect x="0" y="42" width="7" height="1" fill="#363D52" />
<rect x="7" y="42" width="1" height="51" fill="#458DC0" />
<rect x="16" y="42" width="1" height="52" fill="#458DC0" />
<rect x="17" y="42" width="1" height="1" fill="#394E69" />
<rect x="18" y="42" width="5" height="1" fill="#363D52" />
<rect x="23" y="42" width="2" height="24" fill="#458DC0" />
<rect x="99" y="42" width="2" height="52" fill="#458DC0" />
<rect x="108" y="42" width="1" height="51" fill="#458DC0" />
<rect x="109" y="42" width="3" height="1" fill="#363D52" />
<rect x="0" y="43" width="6" height="1" fill="#363D52" />
<rect x="6" y="43" width="1" height="18" fill="#458DC0" />
<rect x="17" y="43" width="2" height="51" fill="#458DC0" />
<rect x="19" y="43" width="3" height="1" fill="#363D52" />
<rect x="22" y="43" width="1" height="25" fill="#458DC0" />
<rect x="109" y="43" width="1" height="19" fill="#458DC0" />
<rect x="110" y="43" width="2" height="1" fill="#363D52" />
<rect x="0" y="44" width="5" height="2" fill="#363D52" />
<rect x="5" y="44" width="1" height="1" fill="#448DC0" />
<rect x="19" y="44" width="1" height="50" fill="#458DC0" />
<rect x="20" y="44" width="1" height="1" fill="#4386B6" />
<rect x="21" y="44" width="1" height="25" fill="#458DC0" />
<rect x="110" y="44" width="1" height="16" fill="#458DC0" />
<rect x="111" y="44" width="1" height="1" fill="#363D52" />
<rect x="5" y="45" width="1" height="15" fill="#458DC0" />
<rect x="20" y="45" width="1" height="26" fill="#458DC0" />
<rect x="87" y="45" width="1" height="5" fill="#458DC0" />
<rect x="88" y="45" width="1" height="2" fill="#E7F0F6" />
<rect x="97" y="45" width="1" height="2" fill="#E7F0F6" />
<rect x="98" y="45" width="1" height="49" fill="#458DC0" />
<rect x="111" y="45" width="1" height="1" fill="#3E668B" />
<rect x="0" y="46" width="4" height="1" fill="#363D52" />
<rect x="4" y="46" width="1" height="13" fill="#458DC0" />
<rect x="89" y="46" width="1" height="2" fill="#E7F0F6" />
<rect x="96" y="46" width="1" height="2" fill="#E7F0F6" />
<rect x="111" y="46" width="1" height="13" fill="#458DC0" />
<rect x="0" y="47" width="3" height="1" fill="#363D52" />
<rect x="3" y="47" width="1" height="10" fill="#458DC0" />
<rect x="88" y="47" width="1" height="4" fill="#458DC0" />
<rect x="90" y="47" width="1" height="1" fill="#E7F0F6" />
<rect x="95" y="47" width="1" height="1" fill="#E7F0F6" />
<rect x="97" y="47" width="1" height="47" fill="#458DC0" />
<rect x="112" y="47" width="1" height="11" fill="#458DC0" />
<rect x="113" y="47" width="1" height="1" fill="#363D52" />
<rect x="0" y="48" width="2" height="2" fill="#363D52" />
<rect x="2" y="48" width="1" height="1" fill="#4383B2" />
<rect x="89" y="48" width="2" height="16" fill="#458DC0" />
<rect x="91" y="48" width="4" height="1" fill="#E7F0F6" />
<rect x="95" y="48" width="2" height="23" fill="#458DC0" />
<rect x="113" y="48" width="1" height="8" fill="#458DC0" />
<rect x="2" y="49" width="1" height="7" fill="#458DC0" />
<rect x="84" y="49" width="3" height="1" fill="#E7F0F6" />
<rect x="91" y="49" width="4" height="17" fill="#458DC0" />
<rect x="0" y="50" width="1" height="1" fill="#363D52" />
<rect x="1" y="50" width="1" height="4" fill="#458DC0" />
<rect x="83" y="50" width="1" height="1" fill="#E7F0F6" />
<rect x="84" y="50" width="3" height="5" fill="#FFFFFF" />
<rect x="87" y="50" width="1" height="1" fill="#E7F0F6" />
<rect x="114" y="50" width="1" height="5" fill="#458DC0" />
<rect x="115" y="50" width="5" height="1" fill="#363D52" />
<rect x="0" y="51" width="1" height="1" fill="#3D6184" />
<rect x="81" y="51" width="1" height="13" fill="#458DC0" />
<rect x="82" y="51" width="1" height="3" fill="#E7F0F6" />
<rect x="83" y="51" width="1" height="3" fill="#FFFFFF" />
<rect x="87" y="51" width="1" height="3" fill="#FFFFFF" />
<rect x="88" y="51" width="1" height="3" fill="#E7F0F6" />
<rect x="115" y="51" width="1" height="2" fill="#458DC0" />
<rect x="116" y="51" width="4" height="77" fill="#363D52" />
<rect x="0" y="52" width="1" height="1" fill="#458DC0" />
<rect x="0" y="53" width="1" height="75" fill="#363D52" />
<rect x="115" y="53" width="1" height="75" fill="#363D52" />
<rect x="1" y="54" width="1" height="1" fill="#3E698E" />
<rect x="82" y="54" width="1" height="10" fill="#458DC0" />
<rect x="83" y="54" width="1" height="1" fill="#E7F0F6" />
<rect x="87" y="54" width="1" height="1" fill="#E7F0F6" />
<rect x="88" y="54" width="1" height="10" fill="#458DC0" />
<rect x="1" y="55" width="1" height="73" fill="#363D52" />
<rect x="83" y="55" width="1" height="8" fill="#458DC0" />
<rect x="84" y="55" width="3" height="1" fill="#E7F0F6" />
<rect x="87" y="55" width="1" height="9" fill="#458DC0" />
<rect x="114" y="55" width="1" height="73" fill="#363D52" />
<rect x="2" y="56" width="1" height="72" fill="#363D52" />
<rect x="84" y="56" width="3" height="7" fill="#458DC0" />
<rect x="113" y="56" width="1" height="72" fill="#363D52" />
<rect x="3" y="57" width="1" height="1" fill="#3E6487" />
<rect x="3" y="58" width="1" height="70" fill="#363D52" />
<rect x="112" y="58" width="1" height="70" fill="#363D52" />
<rect x="4" y="59" width="1" height="69" fill="#363D52" />
<rect x="111" y="59" width="1" height="69" fill="#363D52" />
<rect x="5" y="60" width="1" height="68" fill="#363D52" />
<rect x="110" y="60" width="1" height="1" fill="#394F6B" />
<rect x="6" y="61" width="1" height="1" fill="#438BBD" />
<rect x="110" y="61" width="1" height="67" fill="#363D52" />
<rect x="6" y="62" width="1" height="66" fill="#363D52" />
<rect x="109" y="62" width="1" height="66" fill="#363D52" />
<rect x="30" y="63" width="1" height="1" fill="#82B2D4" />
<rect x="31" y="63" width="1" height="1" fill="#B4D1E6" />
<rect x="32" y="63" width="1" height="1" fill="#639FCA" />
<rect x="33" y="63" width="1" height="1" fill="#458DC0" />
<rect x="83" y="63" width="1" height="1" fill="#639FCA" />
<rect x="84" y="63" width="1" height="1" fill="#B4D1E6" />
<rect x="85" y="63" width="1" height="1" fill="#82B2D4" />
<rect x="86" y="63" width="1" height="1" fill="#458DC0" />
<rect x="26" y="64" width="1" height="1" fill="#468EC0" />
<rect x="27" y="64" width="9" height="4" fill="#FFFFFF" />
<rect x="79" y="64" width="1" height="1" fill="#458DC0" />
<rect x="80" y="64" width="9" height="4" fill="#FFFFFF" />
<rect x="89" y="64" width="1" height="1" fill="#468EC0" />
<rect x="90" y="64" width="1" height="1" fill="#458DC0" />
<rect x="25" y="65" width="2" height="6" fill="#FFFFFF" />
<rect x="36" y="65" width="2" height="4" fill="#FFFFFF" />
<rect x="38" y="65" width="1" height="1" fill="#458DC0" />
<rect x="78" y="65" width="2" height="4" fill="#FFFFFF" />
<rect x="89" y="65" width="2" height="6" fill="#FFFFFF" />
<rect x="23" y="66" width="1" height="1" fill="#458DC0" />
<rect x="24" y="66" width="1" height="18" fill="#FFFFFF" />
<rect x="38" y="66" width="1" height="5" fill="#FFFFFF" />
<rect x="77" y="66" width="1" height="5" fill="#FFFFFF" />
<rect x="91" y="66" width="1" height="18" fill="#FFFFFF" />
<rect x="92" y="66" width="3" height="1" fill="#458DC0" />
<rect x="23" y="67" width="1" height="16" fill="#FFFFFF" />
<rect x="39" y="67" width="1" height="6" fill="#FFFFFF" />
<rect x="40" y="67" width="3" height="1" fill="#458DC0" />
<rect x="76" y="67" width="1" height="6" fill="#FFFFFF" />
<rect x="92" y="67" width="1" height="16" fill="#FFFFFF" />
<rect x="93" y="67" width="2" height="1" fill="#458DC0" />
<rect x="22" y="68" width="1" height="14" fill="#FFFFFF" />
<rect x="27" y="68" width="2" height="1" fill="#FFFFFF" />
<rect x="29" y="68" width="1" height="1" fill="#FBFBFB" />
<rect x="30" y="68" width="5" height="15" fill="#3F3E40" />
<rect x="35" y="68" width="1" height="1" fill="#FFFFFF" />
<rect x="40" y="68" width="1" height="13" fill="#FFFFFF" />
<rect x="41" y="68" width="2" height="2" fill="#458DC0" />
<rect x="75" y="68" width="1" height="13" fill="#FFFFFF" />
<rect x="80" y="68" width="1" height="1" fill="#FFFFFF" />
<rect x="81" y="68" width="5" height="15" fill="#3F3E40" />
<rect x="86" y="68" width="1" height="1" fill="#FBFBFB" />
<rect x="87" y="68" width="2" height="1" fill="#FFFFFF" />
<rect x="93" y="68" width="1" height="14" fill="#FFFFFF" />
<rect x="94" y="68" width="1" height="1" fill="#458DC0" />
<rect x="21" y="69" width="1" height="11" fill="#FFFFFF" />
<rect x="27" y="69" width="1" height="1" fill="#FFFFFF" />
<rect x="28" y="69" width="2" height="13" fill="#3F3E40" />
<rect x="35" y="69" width="2" height="13" fill="#3F3E40" />
<rect x="37" y="69" width="1" height="1" fill="#FFFFFF" />
<rect x="78" y="69" width="1" height="1" fill="#FFFFFF" />
<rect x="79" y="69" width="2" height="13" fill="#3F3E40" />
<rect x="86" y="69" width="2" height="13" fill="#3F3E40" />
<rect x="88" y="69" width="1" height="1" fill="#FFFFFF" />
<rect x="94" y="69" width="1" height="11" fill="#FFFFFF" />
<rect x="27" y="70" width="1" height="11" fill="#3F3E40" />
<rect x="37" y="70" width="1" height="11" fill="#3F3E40" />
<rect x="41" y="70" width="1" height="10" fill="#FFFFFF" />
<rect x="42" y="70" width="1" height="2" fill="#458DC0" />
<rect x="54" y="70" width="2" height="1" fill="#458DC0" />
<rect x="56" y="70" width="1" height="1" fill="#EDF3F8" />
<rect x="57" y="70" width="3" height="17" fill="#FFFFFF" />
<rect x="60" y="70" width="2" height="1" fill="#458DC0" />
<rect x="73" y="70" width="1" height="2" fill="#458DC0" />
<rect x="74" y="70" width="1" height="10" fill="#FFFFFF" />
<rect x="78" y="70" width="1" height="11" fill="#3F3E40" />
<rect x="88" y="70" width="1" height="11" fill="#3F3E40" />
<rect x="20" y="71" width="1" height="1" fill="#91BBD9" />
<rect x="25" y="71" width="1" height="1" fill="#FFFFFF" />
<rect x="26" y="71" width="1" height="9" fill="#3F3E40" />
<rect x="38" y="71" width="1" height="9" fill="#3F3E40" />
<rect x="54" y="71" width="1" height="1" fill="#458DC0" />
<rect x="55" y="71" width="2" height="15" fill="#FFFFFF" />
<rect x="60" y="71" width="1" height="15" fill="#FFFFFF" />
<rect x="61" y="71" width="1" height="1" fill="#458DC0" />
<rect x="77" y="71" width="1" height="9" fill="#3F3E40" />
<rect x="89" y="71" width="1" height="9" fill="#3F3E40" />
<rect x="90" y="71" width="1" height="1" fill="#FFFFFF" />
<rect x="95" y="71" width="1" height="1" fill="#91BBD9" />
<rect x="96" y="71" width="1" height="23" fill="#458DC0" />
<rect x="20" y="72" width="1" height="6" fill="#FFFFFF" />
<rect x="25" y="72" width="1" height="1" fill="#E1E1E2" />
<rect x="42" y="72" width="1" height="1" fill="#7DAFD2" />
<rect x="54" y="72" width="1" height="1" fill="#4E92C3" />
<rect x="61" y="72" width="1" height="1" fill="#FAFCFD" />
<rect x="73" y="72" width="1" height="1" fill="#7DAFD2" />
<rect x="90" y="72" width="1" height="1" fill="#E1E1E2" />
<rect x="95" y="72" width="1" height="6" fill="#FFFFFF" />
<rect x="25" y="73" width="1" height="5" fill="#3F3E40" />
<rect x="39" y="73" width="1" height="5" fill="#3F3E40" />
<rect x="42" y="73" width="1" height="4" fill="#FFFFFF" />
<rect x="54" y="73" width="1" height="11" fill="#FFFFFF" />
<rect x="61" y="73" width="1" height="12" fill="#FFFFFF" />
<rect x="73" y="73" width="1" height="4" fill="#FFFFFF" />
<rect x="76" y="73" width="1" height="5" fill="#3F3E40" />
<rect x="90" y="73" width="1" height="5" fill="#3F3E40" />
<rect x="42" y="77" width="1" height="29" fill="#458DC0" />
<rect x="73" y="77" width="1" height="29" fill="#458DC0" />
<rect x="20" y="78" width="1" height="16" fill="#458DC0" />
<rect x="25" y="78" width="1" height="1" fill="#DCDCDC" />
<rect x="39" y="78" width="1" height="5" fill="#FFFFFF" />
<rect x="76" y="78" width="1" height="5" fill="#FFFFFF" />
<rect x="90" y="78" width="1" height="1" fill="#DCDCDC" />
<rect x="95" y="78" width="1" height="16" fill="#458DC0" />
<rect x="25" y="79" width="1" height="5" fill="#FFFFFF" />
<rect x="90" y="79" width="1" height="5" fill="#FFFFFF" />
<rect x="21" y="80" width="1" height="1" fill="#71A8CE" />
<rect x="26" y="80" width="1" height="5" fill="#FFFFFF" />
<rect x="38" y="80" width="1" height="4" fill="#FFFFFF" />
<rect x="41" y="80" width="1" height="26" fill="#458DC0" />
<rect x="74" y="80" width="1" height="26" fill="#458DC0" />
<rect x="77" y="80" width="1" height="4" fill="#FFFFFF" />
<rect x="89" y="80" width="1" height="5" fill="#FFFFFF" />
<rect x="94" y="80" width="1" height="1" fill="#71A8CE" />
<rect x="21" y="81" width="1" height="13" fill="#458DC0" />
<rect x="27" y="81" width="1" height="4" fill="#FFFFFF" />
<rect x="37" y="81" width="1" height="3" fill="#FFFFFF" />
<rect x="40" y="81" width="1" height="1" fill="#E2EDF4" />
<rect x="75" y="81" width="1" height="1" fill="#E2EDF4" />
<rect x="78" y="81" width="1" height="3" fill="#FFFFFF" />
<rect x="88" y="81" width="1" height="4" fill="#FFFFFF" />
<rect x="94" y="81" width="1" height="13" fill="#458DC0" />
<rect x="22" y="82" width="1" height="12" fill="#458DC0" />
<rect x="28" y="82" width="1" height="4" fill="#FFFFFF" />
<rect x="29" y="82" width="1" height="1" fill="#F7F7F7" />
<rect x="35" y="82" width="2" height="3" fill="#FFFFFF" />
<rect x="40" y="82" width="1" height="24" fill="#458DC0" />
<rect x="75" y="82" width="1" height="24" fill="#458DC0" />
<rect x="79" y="82" width="2" height="3" fill="#FFFFFF" />
<rect x="86" y="82" width="1" height="1" fill="#F7F7F7" />
<rect x="87" y="82" width="1" height="4" fill="#FFFFFF" />
<rect x="93" y="82" width="1" height="13" fill="#458DC0" />
<rect x="23" y="83" width="1" height="12" fill="#458DC0" />
<rect x="29" y="83" width="6" height="3" fill="#FFFFFF" />
<rect x="39" y="83" width="1" height="23" fill="#458DC0" />
<rect x="76" y="83" width="1" height="23" fill="#458DC0" />
<rect x="81" y="83" width="6" height="3" fill="#FFFFFF" />
<rect x="92" y="83" width="1" height="12" fill="#458DC0" />
<rect x="24" y="84" width="1" height="11" fill="#458DC0" />
<rect x="25" y="84" width="1" height="1" fill="#E7F0F6" />
<rect x="37" y="84" width="2" height="22" fill="#458DC0" />
<rect x="54" y="84" width="1" height="1" fill="#CEE1EF" />
<rect x="77" y="84" width="2" height="22" fill="#458DC0" />
<rect x="90" y="84" width="1" height="1" fill="#E7F0F6" />
<rect x="91" y="84" width="1" height="11" fill="#458DC0" />
<rect x="25" y="85" width="2" height="10" fill="#458DC0" />
<rect x="27" y="85" width="1" height="1" fill="#ADCCE3" />
<rect x="35" y="85" width="2" height="21" fill="#458DC0" />
<rect x="54" y="85" width="1" height="12" fill="#458DC0" />
<rect x="61" y="85" width="1" height="12" fill="#458DC0" />
<rect x="79" y="85" width="2" height="21" fill="#458DC0" />
<rect x="88" y="85" width="1" height="1" fill="#ADCCE3" />
<rect x="89" y="85" width="2" height="10" fill="#458DC0" />
<rect x="27" y="86" width="8" height="9" fill="#458DC0" />
<rect x="55" y="86" width="1" height="11" fill="#458DC0" />
<rect x="56" y="86" width="1" height="1" fill="#FFFFFF" />
<rect x="60" y="86" width="1" height="11" fill="#458DC0" />
<rect x="81" y="86" width="8" height="10" fill="#458DC0" />
<rect x="56" y="87" width="4" height="10" fill="#458DC0" />
<rect x="7" y="93" width="4" height="4" fill="#FFFFFF" />
<rect x="11" y="93" width="1" height="1" fill="#B6D2E6" />
<rect x="104" y="93" width="1" height="1" fill="#97BFDC" />
<rect x="105" y="93" width="4" height="4" fill="#FFFFFF" />
<rect x="11" y="94" width="10" height="3" fill="#FFFFFF" />
<rect x="21" y="94" width="1" height="1" fill="#E7F0F6" />
<rect x="22" y="94" width="1" height="1" fill="#5998C6" />
<rect x="94" y="94" width="1" height="1" fill="#C8DDED" />
<rect x="95" y="94" width="10" height="4" fill="#FFFFFF" />
<rect x="21" y="95" width="6" height="3" fill="#FFFFFF" />
<rect x="27" y="95" width="1" height="1" fill="#478EC1" />
<rect x="28" y="95" width="7" height="8" fill="#458DC0" />
<rect x="89" y="95" width="6" height="3" fill="#FFFFFF" />
<rect x="27" y="96" width="1" height="13" fill="#FFFFFF" />
<rect x="81" y="96" width="7" height="9" fill="#458DC0" />
<rect x="88" y="96" width="1" height="13" fill="#FFFFFF" />
<rect x="7" y="97" width="3" height="8" fill="#458DC0" />
<rect x="10" y="97" width="1" height="1" fill="#73A9CF" />
<rect x="11" y="97" width="1" height="1" fill="#FEFFFF" />
<rect x="12" y="97" width="9" height="1" fill="#FFFFFF" />
<rect x="47" y="97" width="22" height="4" fill="#FFFFFF" />
<rect x="69" y="97" width="1" height="1" fill="#76ABD0" />
<rect x="70" y="97" width="3" height="4" fill="#458DC0" />
<rect x="105" y="97" width="1" height="1" fill="#92BBDA" />
<rect x="106" y="97" width="3" height="8" fill="#458DC0" />
<rect x="10" y="98" width="11" height="14" fill="#458DC0" />
<rect x="21" y="98" width="1" height="1" fill="#CFE1EF" />
<rect x="22" y="98" width="5" height="1" fill="#FFFFFF" />
<rect x="43" y="98" width="3" height="4" fill="#458DC0" />
<rect x="46" y="98" width="1" height="12" fill="#FFFFFF" />
<rect x="69" y="98" width="1" height="12" fill="#FFFFFF" />
<rect x="89" y="98" width="5" height="1" fill="#FFFFFF" />
<rect x="94" y="98" width="1" height="1" fill="#EDF3F8" />
<rect x="95" y="98" width="1" height="1" fill="#5998C6" />
<rect x="96" y="98" width="10" height="14" fill="#458DC0" />
<rect x="21" y="99" width="3" height="22" fill="#458DC0" />
<rect x="24" y="99" width="3" height="5" fill="#FFFFFF" />
<rect x="89" y="99" width="3" height="7" fill="#FFFFFF" />
<rect x="92" y="99" width="4" height="22" fill="#458DC0" />
<rect x="47" y="101" width="3" height="2" fill="#FFFFFF" />
<rect x="50" y="101" width="16" height="27" fill="#458DC0" />
<rect x="66" y="101" width="3" height="1" fill="#FFFFFF" />
<rect x="70" y="101" width="1" height="1" fill="#468DC0" />
<rect x="71" y="101" width="2" height="5" fill="#458DC0" />
<rect x="43" y="102" width="2" height="4" fill="#458DC0" />
<rect x="45" y="102" width="1" height="1" fill="#609DC9" />
<rect x="66" y="102" width="1" height="1" fill="#C1D9EA" />
<rect x="67" y="102" width="2" height="7" fill="#FFFFFF" />
<rect x="70" y="102" width="1" height="8" fill="#FFFFFF" />
<rect x="28" y="103" width="1" height="1" fill="#5798C6" />
<rect x="29" y="103" width="6" height="2" fill="#458DC0" />
<rect x="45" y="103" width="1" height="7" fill="#FFFFFF" />
<rect x="47" y="103" width="2" height="6" fill="#FFFFFF" />
<rect x="49" y="103" width="1" height="1" fill="#A0C4DF" />
<rect x="66" y="103" width="1" height="25" fill="#458DC0" />
<rect x="24" y="104" width="1" height="1" fill="#E9F1F7" />
<rect x="25" y="104" width="2" height="5" fill="#FFFFFF" />
<rect x="28" y="104" width="1" height="1" fill="#C0D8EA" />
<rect x="49" y="104" width="1" height="24" fill="#458DC0" />
<rect x="7" y="105" width="1" height="23" fill="#363D52" />
<rect x="8" y="105" width="2" height="3" fill="#458DC0" />
<rect x="24" y="105" width="1" height="1" fill="#82B3D4" />
<rect x="28" y="105" width="5" height="4" fill="#FFFFFF" />
<rect x="33" y="105" width="1" height="1" fill="#F9FBFD" />
<rect x="34" y="105" width="1" height="1" fill="#8BB7D7" />
<rect x="81" y="105" width="1" height="1" fill="#73A9CF" />
<rect x="82" y="105" width="1" height="1" fill="#DBE9F2" />
<rect x="83" y="105" width="5" height="4" fill="#FFFFFF" />
<rect x="106" y="105" width="2" height="4" fill="#458DC0" />
<rect x="108" y="105" width="1" height="1" fill="#4179A5" />
<rect x="24" y="106" width="1" height="16" fill="#458DC0" />
<rect x="33" y="106" width="12" height="3" fill="#FFFFFF" />
<rect x="71" y="106" width="12" height="3" fill="#FFFFFF" />
<rect x="89" y="106" width="2" height="3" fill="#FFFFFF" />
<rect x="91" y="106" width="1" height="1" fill="#D3E4EF" />
<rect x="108" y="106" width="1" height="22" fill="#363D52" />
<rect x="91" y="107" width="1" height="15" fill="#458DC0" />
<rect x="8" y="108" width="1" height="1" fill="#3D5F81" />
<rect x="9" y="108" width="1" height="2" fill="#458DC0" />
<rect x="8" y="109" width="1" height="19" fill="#363D52" />
<rect x="25" y="109" width="7" height="14" fill="#458DC0" />
<rect x="32" y="109" width="1" height="1" fill="#5093C4" />
<rect x="33" y="109" width="1" height="1" fill="#BBD5E8" />
<rect x="34" y="109" width="11" height="1" fill="#FFFFFF" />
<rect x="47" y="109" width="1" height="1" fill="#FFFFFF" />
<rect x="48" y="109" width="1" height="1" fill="#5496C5" />
<rect x="67" y="109" width="1" height="19" fill="#458DC0" />
<rect x="68" y="109" width="1" height="1" fill="#FFFFFF" />
<rect x="71" y="109" width="11" height="1" fill="#FFFFFF" />
<rect x="82" y="109" width="1" height="1" fill="#C8DDED" />
<rect x="83" y="109" width="1" height="1" fill="#5E9BC8" />
<rect x="84" y="109" width="7" height="14" fill="#458DC0" />
<rect x="106" y="109" width="1" height="2" fill="#458DC0" />
<rect x="107" y="109" width="1" height="19" fill="#363D52" />
<rect x="9" y="110" width="1" height="1" fill="#417CA9" />
<rect x="32" y="110" width="14" height="15" fill="#458DC0" />
<rect x="46" y="110" width="1" height="1" fill="#4E92C3" />
<rect x="47" y="110" width="2" height="17" fill="#458DC0" />
<rect x="68" y="110" width="1" height="17" fill="#458DC0" />
<rect x="69" y="110" width="1" height="1" fill="#5A99C7" />
<rect x="70" y="110" width="14" height="15" fill="#458DC0" />
<rect x="9" y="111" width="1" height="17" fill="#363D52" />
<rect x="46" y="111" width="1" height="16" fill="#458DC0" />
<rect x="69" y="111" width="1" height="16" fill="#458DC0" />
<rect x="106" y="111" width="1" height="17" fill="#363D52" />
<rect x="10" y="112" width="1" height="16" fill="#363D52" />
<rect x="11" y="112" width="10" height="1" fill="#458DC0" />
<rect x="96" y="112" width="9" height="2" fill="#458DC0" />
<rect x="105" y="112" width="1" height="16" fill="#363D52" />
<rect x="11" y="113" width="1" height="1" fill="#3C6386" />
<rect x="12" y="113" width="9" height="2" fill="#458DC0" />
<rect x="11" y="114" width="1" height="14" fill="#363D52" />
<rect x="96" y="114" width="8" height="1" fill="#458DC0" />
<rect x="104" y="114" width="1" height="14" fill="#363D52" />
<rect x="12" y="115" width="1" height="13" fill="#363D52" />
<rect x="13" y="115" width="8" height="1" fill="#458DC0" />
<rect x="96" y="115" width="7" height="1" fill="#458DC0" />
<rect x="103" y="115" width="1" height="13" fill="#363D52" />
<rect x="13" y="116" width="1" height="12" fill="#363D52" />
<rect x="14" y="116" width="1" height="1" fill="#427DAB" />
<rect x="15" y="116" width="6" height="1" fill="#458DC0" />
<rect x="96" y="116" width="6" height="1" fill="#458DC0" />
<rect x="102" y="116" width="1" height="12" fill="#363D52" />
<rect x="14" y="117" width="2" height="11" fill="#363D52" />
<rect x="16" y="117" width="5" height="1" fill="#458DC0" />
<rect x="96" y="117" width="4" height="1" fill="#458DC0" />
<rect x="100" y="117" width="1" height="1" fill="#384861" />
<rect x="101" y="117" width="1" height="11" fill="#363D52" />
<rect x="16" y="118" width="1" height="10" fill="#363D52" />
<rect x="17" y="118" width="4" height="1" fill="#458DC0" />
<rect x="96" y="118" width="3" height="1" fill="#458DC0" />
<rect x="99" y="118" width="2" height="10" fill="#363D52" />
<rect x="17" y="119" width="1" height="9" fill="#363D52" />
<rect x="18" y="119" width="1" height="1" fill="#363F54" />
<rect x="19" y="119" width="2" height="1" fill="#458DC0" />
<rect x="96" y="119" width="1" height="1" fill="#458DC0" />
<rect x="97" y="119" width="1" height="1" fill="#3D6082" />
<rect x="98" y="119" width="1" height="9" fill="#363D52" />
<rect x="18" y="120" width="2" height="8" fill="#363D52" />
<rect x="20" y="120" width="1" height="1" fill="#4385B4" />
<rect x="96" y="120" width="2" height="8" fill="#363D52" />
<rect x="20" y="121" width="2" height="7" fill="#363D52" />
<rect x="22" y="121" width="1" height="1" fill="#427CA9" />
<rect x="23" y="121" width="1" height="1" fill="#458DC0" />
<rect x="92" y="121" width="2" height="1" fill="#458DC0" />
<rect x="94" y="121" width="2" height="7" fill="#363D52" />
<rect x="22" y="122" width="3" height="6" fill="#363D52" />
<rect x="91" y="122" width="1" height="1" fill="#394D68" />
<rect x="92" y="122" width="2" height="6" fill="#363D52" />
<rect x="25" y="123" width="2" height="5" fill="#363D52" />
<rect x="27" y="123" width="1" height="1" fill="#427EAB" />
<rect x="28" y="123" width="4" height="1" fill="#458DC0" />
<rect x="84" y="123" width="5" height="1" fill="#458DC0" />
<rect x="89" y="123" width="3" height="5" fill="#363D52" />
<rect x="27" y="124" width="3" height="4" fill="#363D52" />
<rect x="30" y="124" width="1" height="1" fill="#3A5270" />
<rect x="31" y="124" width="1" height="1" fill="#458DC0" />
<rect x="84" y="124" width="1" height="1" fill="#458DC0" />
<rect x="85" y="124" width="1" height="1" fill="#3F6D94" />
<rect x="86" y="124" width="3" height="4" fill="#363D52" />
<rect x="30" y="125" width="4" height="3" fill="#363D52" />
<rect x="34" y="125" width="1" height="1" fill="#3D6285" />
<rect x="35" y="125" width="11" height="1" fill="#458DC0" />
<rect x="70" y="125" width="11" height="1" fill="#458DC0" />
<rect x="81" y="125" width="1" height="1" fill="#427CA7" />
<rect x="82" y="125" width="4" height="3" fill="#363D52" />
<rect x="34" y="126" width="5" height="2" fill="#363D52" />
<rect x="39" y="126" width="1" height="1" fill="#3A5270" />
<rect x="40" y="126" width="6" height="1" fill="#458DC0" />
<rect x="70" y="126" width="6" height="1" fill="#458DC0" />
<rect x="76" y="126" width="1" height="1" fill="#3F6589" />
<rect x="77" y="126" width="5" height="2" fill="#363D52" />
<rect x="39" y="127" width="8" height="1" fill="#363D52" />
<rect x="47" y="127" width="1" height="1" fill="#3B5673" />
<rect x="48" y="127" width="1" height="1" fill="#4488B9" />
<rect x="68" y="127" width="1" height="1" fill="#3C5D7E" />
<rect x="69" y="127" width="8" height="1" fill="#363D52" />
</svg>